<?xml version="1.0" encoding="utf-8"?>
<!-- Generated by IcoMoon.io -->
<!DOCTYPE svg PUBLIC "-//W3C//DTD SVG 1.1//EN" "http://www.w3.org/Graphics/SVG/1.1/DTD/svg11.dtd">
<svg version="1.1" xmlns="http://www.w3.org/2000/svg" xmlns:xlink="http://www.w3.org/1999/xlink" width="19" height="24" viewBox="0 0 19 24">
<path fill="rgb(0, 0, 0)" d="M5.279 0.055c-0.121 0.004-0.251 0.048-0.398 0.165-0.361-0.139-0.711-0.188-1.024 0.096-0.483-0.063-0.64 0.067-0.759 0.218-0.106-0.002-0.794-0.109-1.109 0.361-0.793-0.094-1.043 0.466-0.759 0.989-0.162 0.251-0.33 0.498 0.049 0.976-0.134 0.266-0.051 0.555 0.265 0.904-0.083 0.374 0.080 0.638 0.374 0.844-0.055 0.512 0.469 0.81 0.626 0.916 0.060 0.298 0.185 0.58 0.784 0.735 0.099 0.445 0.459 0.521 0.807 0.615-1.152 0.67-2.14 1.551-2.133 3.713l-0.169 0.301c-1.321 0.803-2.51 3.385-0.651 5.484 0.121 0.657 0.325 1.129 0.506 1.651 0.271 2.104 2.041 3.090 2.507 3.206 0.684 0.521 1.412 1.015 2.398 1.361 0.929 0.958 1.936 1.324 2.948 1.323 0.015 0 0.030 0 0.045 0 1.012 0.001 2.019-0.365 2.948-1.323 0.986-0.346 1.714-0.841 2.398-1.361 0.467-0.117 2.236-1.102 2.507-3.206 0.181-0.522 0.385-0.994 0.506-1.651 1.858-2.099 0.67-4.681-0.651-5.484l-0.169-0.301c0.007-2.162-0.981-3.043-2.133-3.713 0.349-0.093 0.709-0.17 0.807-0.615 0.599-0.156 0.724-0.437 0.784-0.735 0.157-0.106 0.681-0.404 0.626-0.916 0.294-0.206 0.457-0.47 0.374-0.844 0.315-0.349 0.399-0.638 0.265-0.904 0.379-0.478 0.211-0.725 0.049-0.976 0.284-0.522 0.033-1.082-0.76-0.989-0.315-0.471-1.003-0.364-1.109-0.361-0.119-0.151-0.276-0.28-0.759-0.218-0.313-0.283-0.663-0.235-1.024-0.096-0.429-0.338-0.712-0.067-1.036 0.035-0.519-0.17-0.638 0.063-0.893 0.157-0.566-0.12-0.738 0.141-1.009 0.416l-0.316-0.006c-0.854 0.503-1.278 1.528-1.428 2.054-0.15-0.527-0.574-1.551-1.427-2.054l-0.316 0.006c-0.272-0.275-0.444-0.535-1.010-0.416-0.255-0.095-0.373-0.327-0.893-0.157-0.213-0.067-0.408-0.207-0.639-0.2z"></path>
<path fill="rgb(117, 169, 40)" d="M3.58 2.269c2.265 1.168 3.582 2.112 4.303 2.917-0.369 1.481-2.297 1.548-3.001 1.507 0.144-0.067 0.265-0.148 0.307-0.271-0.177-0.126-0.804-0.013-1.241-0.259 0.168-0.035 0.247-0.069 0.325-0.193-0.414-0.132-0.859-0.246-1.121-0.464 0.141 0.002 0.273 0.032 0.458-0.096-0.37-0.2-0.766-0.358-1.073-0.663 0.192-0.005 0.398-0.002 0.458-0.072-0.339-0.21-0.625-0.444-0.862-0.699 0.268 0.032 0.381 0.005 0.446-0.042-0.256-0.262-0.581-0.484-0.735-0.808 0.199 0.069 0.381 0.095 0.512-0.006-0.087-0.196-0.46-0.312-0.675-0.771 0.209 0.020 0.432 0.046 0.476 0-0.097-0.396-0.264-0.619-0.428-0.85 0.448-0.007 1.128 0.002 1.097-0.036l-0.277-0.283c0.438-0.118 0.886 0.019 1.211 0.121 0.146-0.115-0.003-0.261-0.181-0.41 0.372 0.050 0.708 0.135 1.012 0.253 0.162-0.147-0.105-0.293-0.235-0.44 0.575 0.109 0.819 0.262 1.061 0.416 0.176-0.168 0.010-0.311-0.108-0.458 0.434 0.161 0.657 0.368 0.892 0.573 0.080-0.108 0.203-0.186 0.054-0.446 0.308 0.177 0.54 0.387 0.711 0.621 0.19-0.121 0.113-0.287 0.114-0.44 0.32 0.26 0.523 0.537 0.771 0.808 0.050-0.036 0.094-0.16 0.133-0.356 0.763 0.74 1.842 2.605 0.277 3.345-1.331-1.098-2.921-1.896-4.683-2.495z"></path>
<path fill="rgb(117, 169, 40)" d="M15.597 2.269c-2.265 1.168-3.581 2.112-4.303 2.917 0.369 1.481 2.297 1.548 3.001 1.507-0.144-0.067-0.265-0.148-0.307-0.271 0.177-0.126 0.804-0.013 1.241-0.259-0.168-0.035-0.247-0.069-0.325-0.193 0.414-0.132 0.859-0.246 1.121-0.464-0.141 0.002-0.273 0.032-0.458-0.096 0.37-0.2 0.766-0.358 1.073-0.663-0.192-0.005-0.398-0.002-0.458-0.072 0.339-0.21 0.625-0.444 0.862-0.699-0.268 0.032-0.381 0.005-0.446-0.042 0.256-0.262 0.581-0.484 0.735-0.808-0.199 0.069-0.381 0.095-0.512-0.006 0.087-0.196 0.46-0.312 0.675-0.771-0.209 0.020-0.432 0.046-0.476 0 0.097-0.396 0.264-0.619 0.428-0.85-0.448-0.007-1.128 0.002-1.097-0.036l0.277-0.283c-0.438-0.118-0.886 0.019-1.211 0.121-0.146-0.115 0.003-0.261 0.181-0.41-0.372 0.050-0.708 0.135-1.012 0.253-0.162-0.147 0.105-0.293 0.235-0.44-0.575 0.109-0.819 0.262-1.061 0.416-0.176-0.168-0.010-0.311 0.108-0.458-0.434 0.161-0.657 0.368-0.892 0.573-0.080-0.108-0.203-0.186-0.054-0.446-0.308 0.177-0.54 0.387-0.711 0.621-0.19-0.121-0.113-0.287-0.114-0.44-0.32 0.26-0.523 0.537-0.771 0.808-0.050-0.036-0.094-0.16-0.133-0.356-0.763 0.74-1.842 2.605-0.277 3.345 1.331-1.098 2.921-1.896 4.683-2.495z"></path>
<path fill="rgb(188, 17, 66)" d="M12.331 17.345c0 0.004 0 0.009 0 0.013 0 1.382-1.215 2.502-2.713 2.502s-2.713-1.12-2.713-2.502c0-0.005 0-0.009 0-0.014-0-0.003-0-0.008-0-0.012 0-1.382 1.215-2.502 2.713-2.502s2.713 1.12 2.713 2.502c0 0.005-0 0.009-0 0.014z"></path>
<path fill="rgb(188, 17, 66)" d="M8.049 10.199c1.124 0.736 1.327 2.406 0.453 3.729s-2.494 1.798-3.618 1.062c-1.124-0.736-1.327-2.406-0.453-3.729s2.494-1.798 3.618-1.062z"></path>
<path fill="rgb(188, 17, 66)" d="M11.083 10.066c-1.124 0.736-1.327 2.406-0.453 3.729s2.494 1.798 3.618 1.062c1.124-0.736 1.327-2.406 0.453-3.729s-2.494-1.798-3.618-1.062z"></path>
<path fill="rgb(188, 17, 66)" d="M2.43 11.403c1.214-0.325 0.41 5.021-0.578 4.582-1.086-0.874-1.436-3.432 0.578-4.582z"></path>
<path fill="rgb(188, 17, 66)" d="M16.456 11.336c-1.214-0.325-0.41 5.021 0.578 4.583 1.086-0.874 1.436-3.433-0.578-4.583z"></path>
<path fill="rgb(188, 17, 66)" d="M12.332 7.355c2.094-0.354 3.837 0.891 3.767 3.162-0.069 0.871-4.539-3.032-3.767-3.162z"></path>
<path fill="rgb(188, 17, 66)" d="M6.545 7.288c-2.095-0.354-3.837 0.891-3.767 3.162 0.069 0.871 4.539-3.032 3.767-3.162z"></path>
<path fill="rgb(188, 17, 66)" d="M9.554 6.759c-1.25-0.033-2.45 0.928-2.453 1.485-0.003 0.677 0.988 1.37 2.461 1.387 1.504 0.011 2.464-0.555 2.469-1.253 0.005-0.791-1.368-1.631-2.477-1.619z"></path>
<path fill="rgb(188, 17, 66)" d="M9.63 20.637c1.090-0.048 2.552 0.351 2.555 0.88 0.018 0.513-1.326 1.674-2.628 1.651-1.348 0.058-2.669-1.104-2.652-1.507-0.020-0.591 1.641-1.052 2.724-1.024z"></path>
<path fill="rgb(188, 17, 66)" d="M5.605 17.503c0.776 0.935 1.13 2.577 0.482 3.061-0.613 0.37-2.1 0.217-3.158-1.302-0.713-1.275-0.621-2.572-0.121-2.953 0.749-0.456 1.906 0.16 2.796 1.193z"></path>
<path fill="rgb(188, 17, 66)" d="M13.501 17.207c-0.84 0.983-1.307 2.777-0.695 3.355 0.586 0.449 2.158 0.386 3.319-1.225 0.843-1.082 0.561-2.889 0.079-3.369-0.715-0.553-1.743 0.155-2.703 1.24z"></path>
</svg>
