<?xml version="1.0" encoding="utf-8"?>
<!-- Generated by IcoMoon.io -->
<!DOCTYPE svg PUBLIC "-//W3C//DTD SVG 1.1//EN" "http://www.w3.org/Graphics/SVG/1.1/DTD/svg11.dtd">
<svg version="1.1" xmlns="http://www.w3.org/2000/svg" xmlns:xlink="http://www.w3.org/1999/xlink" width="19" height="24" viewBox="0 0 19 24">
<path fill="rgb(0, 0, 0)" d="M5.279 0.055c-0.121 0.004-0.251 0.048-0.398 0.165-0.361-0.139-0.711-0.188-1.024 0.096-0.483-0.063-0.64 0.067-0.759 0.218-0.106-0.002-0.794-0.109-1.109 0.361-0.793-0.094-1.043 0.466-0.759 0.989-0.162 0.251-0.33 0.498 0.049 0.976-0.134 0.266-0.051 0.555 0.265 0.904-0.083 0.374 0.080 0.638 0.374 0.844-0.055 0.512 0.469 0.81 0.626 0.916 0.060 0.298 0.185 0.58 0.784 0.735 0.099 0.445 0.459 0.521 0.807 0.615-1.152 0.67-2.14 1.551-2.133 3.713l-0.169 0.301c-1.321 0.803-2.51 3.385-0.651 5.484 0.121 0.657 0.325 1.129 0.506 1.651 0.271 2.104 2.041 3.090 2.507 3.206 0.684 0.521 1.412 1.015 2.398 1.361 0.929 0.958 1.936 1.324 2.948 1.323 0.015 0 0.030 0 0.045 0 1.012 0.001 2.019-0.365 2.948-1.323 0.986-0.346 1.714-0.841 2.398-1.361 0.467-0.117 2.236-1.102 2.507-3.206 0.181-0.522 0.385-0.994 0.506-1.651 1.858-2.099 0.67-4.681-0.651-5.484l-0.169-0.301c0.007-2.162-0.981-3.043-2.133-3.713 0.349-0.093 0.709-0.17 0.807-0.615 0.599-0.156 0.724-0.437 0.784-0.735 0.157-0.106 0.681-0.404 0.626-0.916 0.294-0.206 0.457-0.47 0.374-0.844 0.315-0.349 0.399-0.638 0.265-0.904 0.379-0.478 0.211-0.725 0.049-0.976 0.284-0.522 0.033-1.082-0.76-0.989-0.315-0.471-1.003-0.364-1.109-0.361-0.119-0.151-0.276-0.28-0.759-0.218-0.313-0.283-0.663-0.235-1.024-0.096-0.429-0.338-0.712-0.067-1.036 0.035-0.519-0.17-0.638 0.063-0.893 0.157-0.566-0.12-0.738 0.141-1.009 0.416l-0.316-0.006c-0.854 0.503-1.278 1.528-1.428 2.054-0.15-0.527-0.574-1.551-1.427-2.054l-0.316 0.006c-0.272-0.275-0.444-0.535-1.010-0.416-0.255-0.095-0.373-0.327-0.893-0.157-0.213-0.067-0.408-0.207-0.639-0.2z"></path>
<path fill="rgb(255, 255, 255)" d="M3.58 2.269c2.265 1.168 3.582 2.112 4.303 2.917-0.369 1.481-2.297 1.548-3.001 1.507 0.144-0.067 0.265-0.148 0.307-0.271-0.177-0.126-0.804-0.013-1.241-0.259 0.168-0.035 0.247-0.069 0.325-0.193-0.414-0.132-0.859-0.246-1.121-0.464 0.141 0.002 0.273 0.032 0.458-0.096-0.37-0.2-0.766-0.358-1.073-0.663 0.192-0.005 0.398-0.002 0.458-0.072-0.339-0.21-0.625-0.444-0.862-0.699 0.268 0.032 0.381 0.005 0.446-0.042-0.256-0.262-0.581-0.484-0.735-0.808 0.199 0.069 0.381 0.095 0.512-0.006-0.087-0.196-0.46-0.312-0.675-0.771 0.209 0.020 0.432 0.046 0.476 0-0.097-0.396-0.264-0.619-0.428-0.85 0.448-0.007 1.128 0.002 1.097-0.036l-0.277-0.283c0.438-0.118 0.886 0.019 1.211 0.121 0.146-0.115-0.003-0.261-0.181-0.41 0.372 0.050 0.708 0.135 1.012 0.253 0.162-0.147-0.105-0.293-0.235-0.44 0.575 0.109 0.819 0.262 1.061 0.416 0.176-0.168 0.010-0.311-0.108-0.458 0.434 0.161 0.657 0.368 0.892 0.573 0.080-0.108 0.203-0.186 0.054-0.446 0.308 0.177 0.54 0.387 0.711 0.621 0.19-0.121 0.113-0.287 0.114-0.44 0.32 0.26 0.523 0.537 0.771 0.808 0.050-0.036 0.094-0.16 0.133-0.356 0.763 0.74 1.842 2.605 0.277 3.345-1.331-1.098-2.921-1.896-4.683-2.495z"></path>
<path fill="rgb(255, 255, 255)" d="M15.597 2.269c-2.265 1.168-3.581 2.112-4.303 2.917 0.369 1.481 2.297 1.548 3.001 1.507-0.144-0.067-0.265-0.148-0.307-0.271 0.177-0.126 0.804-0.013 1.241-0.259-0.168-0.035-0.247-0.069-0.325-0.193 0.414-0.132 0.859-0.246 1.121-0.464-0.141 0.002-0.273 0.032-0.458-0.096 0.37-0.2 0.766-0.358 1.073-0.663-0.192-0.005-0.398-0.002-0.458-0.072 0.339-0.21 0.625-0.444 0.862-0.699-0.268 0.032-0.381 0.005-0.446-0.042 0.256-0.262 0.581-0.484 0.735-0.808-0.199 0.069-0.381 0.095-0.512-0.006 0.087-0.196 0.46-0.312 0.675-0.771-0.209 0.020-0.432 0.046-0.476 0 0.097-0.396 0.264-0.619 0.428-0.85-0.448-0.007-1.128 0.002-1.097-0.036l0.277-0.283c-0.438-0.118-0.886 0.019-1.211 0.121-0.146-0.115 0.003-0.261 0.181-0.41-0.372 0.050-0.708 0.135-1.012 0.253-0.162-0.147 0.105-0.293 0.235-0.44-0.575 0.109-0.819 0.262-1.061 0.416-0.176-0.168-0.010-0.311 0.108-0.458-0.434 0.161-0.657 0.368-0.892 0.573-0.080-0.108-0.203-0.186-0.054-0.446-0.308 0.177-0.54 0.387-0.711 0.621-0.19-0.121-0.113-0.287-0.114-0.44-0.32 0.26-0.523 0.537-0.771 0.808-0.050-0.036-0.094-0.16-0.133-0.356-0.763 0.74-1.842 2.605-0.277 3.345 1.331-1.098 2.921-1.896 4.683-2.495z"></path>
<path fill="rgb(0, 0, 0)" d="M12.331 17.345c0 0.004 0 0.009 0 0.013 0 1.382-1.215 2.502-2.713 2.502s-2.713-1.12-2.713-2.502c0-0.005 0-0.009 0-0.014-0-0.003-0-0.008-0-0.012 0-1.382 1.215-2.502 2.713-2.502s2.713 1.12 2.713 2.502c0 0.005-0 0.009-0 0.014z"></path>
<path fill="rgb(255, 255, 255)" d="M8.049 10.199c1.124 0.736 1.327 2.406 0.453 3.729s-2.494 1.798-3.618 1.062c-1.124-0.736-1.327-2.406-0.453-3.729s2.494-1.798 3.618-1.062z"></path>
<path fill="rgb(0, 0, 0)" d="M11.083 10.066c-1.124 0.736-1.327 2.406-0.453 3.729s2.494 1.798 3.618 1.062c1.124-0.736 1.327-2.406 0.453-3.729s-2.494-1.798-3.618-1.062z"></path>
<path fill="rgb(0, 0, 0)" d="M2.43 11.403c1.214-0.325 0.41 5.021-0.578 4.582-1.086-0.874-1.436-3.432 0.578-4.582z"></path>
<path fill="rgb(0, 0, 0)" d="M16.456 11.336c-1.214-0.325-0.41 5.021 0.578 4.583 1.086-0.874 1.436-3.433-0.578-4.583z"></path>
<path fill="rgb(0, 0, 0)" d="M12.332 7.355c2.094-0.354 3.837 0.891 3.767 3.162-0.069 0.871-4.539-3.032-3.767-3.162z"></path>
<path fill="rgb(0, 0, 0)" d="M6.545 7.288c-2.095-0.354-3.837 0.891-3.767 3.162 0.069 0.871 4.539-3.032 3.767-3.162z"></path>
<path fill="rgb(0, 0, 0)" d="M9.554 6.759c-1.25-0.033-2.45 0.928-2.453 1.485-0.003 0.677 0.988 1.37 2.461 1.387 1.504 0.011 2.464-0.555 2.469-1.253 0.005-0.791-1.368-1.631-2.477-1.619z"></path>
<path fill="rgb(0, 0, 0)" d="M9.63 20.637c1.090-0.048 2.552 0.351 2.555 0.88 0.018 0.513-1.326 1.674-2.628 1.651-1.348 0.058-2.669-1.104-2.652-1.507-0.020-0.591 1.641-1.052 2.724-1.024z"></path>
<path fill="rgb(0, 0, 0)" d="M5.605 17.503c0.776 0.935 1.13 2.577 0.482 3.061-0.613 0.37-2.1 0.217-3.158-1.302-0.713-1.275-0.621-2.572-0.121-2.953 0.749-0.456 1.906 0.16 2.796 1.193z"></path>
<path fill="rgb(0, 0, 0)" d="M13.501 17.207c-0.84 0.983-1.307 2.777-0.695 3.355 0.586 0.449 2.158 0.386 3.319-1.225 0.843-1.082 0.561-2.889 0.079-3.369-0.715-0.553-1.743 0.155-2.703 1.24z"></path>
<path fill="rgb(255, 255, 255)" d="M12.602 15.089c-2.203-0.462-3.261-3.48-1.685-4.806 0.622-0.523 1.659-0.62 2.473-0.232 0.834 0.399 1.578 1.423 1.759 2.423 0.157 0.865-0.225 1.822-0.915 2.296-0.378 0.259-1.176 0.415-1.631 0.32z"></path>
<path fill="rgb(255, 255, 255)" d="M8.649 19.62c-1.258-0.448-2.011-1.939-1.544-3.057 0.389-0.932 1.252-1.553 2.287-1.647 2.331-0.211 3.763 2.394 2.214 4.027-0.705 0.743-1.963 1.031-2.956 0.677v0z"></path>
<path fill="rgb(255, 255, 255)" d="M13.091 20.642c-0.95-0.425-0.506-2.428 0.837-3.776 1.589-1.595 2.642-1.309 2.638 0.717-0.001 0.649-0.049 0.906-0.237 1.271-0.68 1.319-2.293 2.21-3.238 1.787z"></path>
<path fill="rgb(255, 255, 255)" d="M16.689 15.723c-0.577-0.638-0.987-3.065-0.671-3.973 0.152-0.435 0.455-0.418 0.941 0.055 1.014 0.985 1.167 2.577 0.356 3.698-0.328 0.453-0.394 0.477-0.626 0.22z"></path>
<path fill="rgb(255, 255, 255)" d="M15.653 10.472c-0.832-0.353-3.305-2.567-3.305-2.958 0-0.208 1.009-0.202 1.725 0.010 1.077 0.32 1.999 1.607 1.916 2.672l-0.032 0.405-0.305-0.129z"></path>
<path fill="rgb(255, 255, 255)" d="M8.941 9.537c-0.801-0.205-1.192-0.394-1.47-0.71-0.393-0.448-0.39-0.655 0.020-1.121 0.968-1.102 2.905-1.147 4.005-0.093 0.348 0.333 0.445 0.499 0.445 0.759 0 0.406-0.406 0.823-0.98 1.008-0.434 0.14-1.701 0.238-2.020 0.157z"></path>
<path fill="rgb(255, 255, 255)" d="M2.873 10.464c-0.091-0.091 0.112-1.269 0.272-1.578 0.432-0.836 1.156-1.351 2.155-1.536 0.591-0.109 1.25-0.049 1.25 0.115 0 0.324-2.332 2.428-3.16 2.85-0.428 0.219-0.444 0.223-0.518 0.149z"></path>
<path fill="rgb(255, 255, 255)" d="M1.551 15.529c-0.777-1.183-0.643-2.635 0.334-3.611 0.268-0.268 0.56-0.487 0.649-0.487 0.092 0 0.232 0.166 0.323 0.381 0.281 0.67 0.032 2.686-0.455 3.686-0.246 0.504-0.533 0.514-0.851 0.030v0z"></path>
<path fill="rgb(255, 255, 255)" d="M4.541 20.521c-0.631-0.231-1.476-1.046-1.753-1.69-0.313-0.728-0.382-1.663-0.158-2.137 0.278-0.585 0.81-0.637 1.695-0.165 1.134 0.604 1.923 1.781 2.003 2.987 0.032 0.491 0.002 0.659-0.154 0.852-0.25 0.308-1.012 0.379-1.633 0.152v0z"></path>
<path fill="rgb(255, 255, 255)" d="M8.788 23.030c-0.765-0.233-1.831-1.025-1.831-1.359 0-0.433 1.068-0.857 2.402-0.955 0.986-0.072 2.144 0.169 2.565 0.534 0.262 0.227 0.265 0.242 0.103 0.521-0.241 0.414-1.047 1-1.636 1.19-0.534 0.172-1.175 0.2-1.604 0.069z"></path>
<path fill="rgb(255, 255, 255)" d="M5.185 6.517c0.050-0.131-0.038-0.175-0.457-0.231-0.384-0.051-0.512-0.109-0.492-0.223 0.018-0.102-0.128-0.206-0.431-0.309-0.252-0.085-0.4-0.174-0.331-0.197 0.223-0.074 0.138-0.21-0.278-0.443-0.33-0.185-0.382-0.254-0.284-0.372 0.094-0.114 0.086-0.164-0.037-0.233-0.086-0.048-0.267-0.18-0.402-0.292-0.204-0.17-0.215-0.205-0.067-0.207 0.252-0.005 0.223-0.099-0.147-0.482-0.305-0.314-0.311-0.335-0.102-0.335 0.3 0 0.282-0.082-0.102-0.478-0.305-0.314-0.311-0.335-0.102-0.335 0.264 0 0.278-0.108 0.068-0.514l-0.155-0.3h0.443c0.513 0 0.628-0.073 0.451-0.287-0.11-0.134-0.074-0.144 0.281-0.084 0.76 0.13 0.815 0.126 0.785-0.054-0.024-0.148 0.020-0.157 0.332-0.071 0.371 0.102 0.609 0.045 0.506-0.121-0.081-0.131 0.003-0.119 0.427 0.058 0.446 0.187 0.42 0.187 0.46-0.010 0.028-0.138 0.077-0.127 0.326 0.069 0.279 0.22 0.3 0.222 0.426 0.049 0.125-0.171 0.15-0.164 0.406 0.109 0.248 0.265 0.282 0.276 0.385 0.116s0.143-0.145 0.45 0.151c0.259 0.251 0.357 0.295 0.421 0.19 0.063-0.103 0.149-0.051 0.346 0.207 0.703 0.922 0.868 1.878 0.416 2.415-0.145 0.172-0.324 0.313-0.397 0.313s-0.569-0.291-1.101-0.646c-0.898-0.6-2.734-1.494-3.394-1.653-0.396-0.095-0.322-0.040 0.833 0.624 1.309 0.751 2.353 1.472 2.799 1.932l0.353 0.365-0.216 0.376c-0.274 0.477-1.095 0.91-1.896 1-0.511 0.057-0.579 0.045-0.525-0.096v0z"></path>
<path fill="rgb(255, 255, 255)" d="M12.881 6.494c-0.294-0.079-0.65-0.219-0.791-0.312-0.307-0.201-0.658-0.673-0.658-0.885 0-0.345 1.792-1.683 3.437-2.567 0.408-0.219 0.702-0.412 0.654-0.428-0.317-0.106-2.996 1.201-4.026 1.964-0.556 0.412-0.612 0.431-0.823 0.293-0.524-0.343-0.608-1.196-0.2-2.012 0.334-0.668 0.661-1.032 0.769-0.856 0.057 0.092 0.175 0.034 0.425-0.209 0.292-0.283 0.357-0.31 0.411-0.168 0.056 0.146 0.108 0.132 0.395-0.11 0.276-0.232 0.336-0.251 0.363-0.111 0.042 0.214 0.076 0.211 0.489-0.044 0.291-0.18 0.343-0.187 0.343-0.051 0 0.196 0.076 0.197 0.407 0.008 0.344-0.197 0.517-0.191 0.438 0.014-0.055 0.144-0.011 0.157 0.318 0.095 0.29-0.054 0.41-0.033 0.499 0.088 0.095 0.129 0.185 0.14 0.473 0.057 0.52-0.15 0.766-0.136 0.624 0.034-0.163 0.197-0.039 0.27 0.455 0.27h0.435l-0.146 0.28c-0.188 0.36-0.186 0.534 0.005 0.534 0.221 0 0.188 0.135-0.102 0.407-0.313 0.294-0.322 0.407-0.030 0.407 0.202 0 0.185 0.040-0.173 0.407-0.331 0.339-0.364 0.407-0.199 0.411 0.163 0.003 0.131 0.064-0.176 0.335-0.318 0.281-0.35 0.346-0.215 0.432 0.131 0.083 0.074 0.146-0.313 0.351-0.401 0.212-0.449 0.268-0.314 0.367 0.134 0.098 0.089 0.14-0.278 0.265-0.287 0.097-0.428 0.201-0.411 0.302 0.020 0.114-0.108 0.172-0.492 0.223-0.396 0.053-0.505 0.104-0.462 0.217 0.074 0.192-0.398 0.188-1.132-0.009v0z"></path>
</svg>
