<?xml version="1.0" encoding="utf-8"?>
<!-- Generated by IcoMoon.io -->
<!DOCTYPE svg PUBLIC "-//W3C//DTD SVG 1.1//EN" "http://www.w3.org/Graphics/SVG/1.1/DTD/svg11.dtd">
<svg version="1.1" xmlns="http://www.w3.org/2000/svg" xmlns:xlink="http://www.w3.org/1999/xlink" width="13" height="16" viewBox="0 0 13 16">
<path fill="rgb(0, 0, 0)" d="M3.52 0.037c-0.080 0.003-0.167 0.032-0.265 0.11-0.241-0.093-0.474-0.125-0.683 0.064-0.322-0.042-0.427 0.044-0.506 0.145-0.071-0.001-0.529-0.073-0.74 0.241-0.528-0.063-0.695 0.311-0.506 0.659-0.108 0.167-0.22 0.332 0.033 0.651-0.089 0.177-0.034 0.37 0.176 0.603-0.056 0.249 0.054 0.425 0.249 0.562-0.037 0.341 0.313 0.54 0.417 0.61 0.040 0.199 0.124 0.387 0.523 0.49 0.066 0.296 0.306 0.348 0.538 0.41-0.768 0.446-1.427 1.034-1.422 2.475l-0.113 0.201c-0.881 0.536-1.673 2.257-0.434 3.656 0.081 0.438 0.217 0.753 0.338 1.101 0.181 1.403 1.36 2.060 1.672 2.138 0.456 0.347 0.942 0.677 1.599 0.908 0.619 0.639 1.291 0.882 1.965 0.882 0.010 0 0.020 0 0.030 0 0.675 0 1.346-0.243 1.965-0.882 0.657-0.231 1.143-0.56 1.599-0.908 0.311-0.078 1.491-0.735 1.672-2.138 0.121-0.348 0.257-0.663 0.338-1.101 1.239-1.399 0.447-3.121-0.434-3.656l-0.113-0.201c0.004-1.441-0.654-2.029-1.422-2.475 0.232-0.062 0.472-0.113 0.538-0.41 0.399-0.104 0.483-0.291 0.523-0.49 0.104-0.071 0.454-0.269 0.417-0.61 0.196-0.137 0.305-0.313 0.249-0.562 0.21-0.233 0.266-0.425 0.176-0.603 0.252-0.318 0.14-0.483 0.033-0.651 0.189-0.348 0.022-0.722-0.506-0.659-0.21-0.314-0.669-0.242-0.74-0.241-0.079-0.101-0.184-0.187-0.506-0.145-0.209-0.189-0.442-0.157-0.683-0.064-0.286-0.226-0.475-0.045-0.691 0.024-0.346-0.113-0.425 0.042-0.595 0.105-0.377-0.080-0.492 0.094-0.673 0.277l-0.21-0.004c-0.569 0.335-0.852 1.018-0.952 1.369-0.1-0.351-0.382-1.034-0.951-1.369l-0.21 0.004c-0.181-0.183-0.296-0.357-0.673-0.277-0.17-0.063-0.249-0.218-0.595-0.105-0.142-0.045-0.272-0.138-0.426-0.133z"></path>
<path fill="rgb(117, 169, 40)" d="M2.386 1.512c1.51 0.778 2.388 1.408 2.869 1.945-0.246 0.987-1.531 1.032-2.001 1.004 0.096-0.045 0.176-0.098 0.205-0.181-0.118-0.084-0.536-0.009-0.828-0.173 0.112-0.023 0.165-0.046 0.217-0.129-0.276-0.088-0.573-0.164-0.747-0.309 0.094 0.001 0.182 0.021 0.305-0.064-0.247-0.133-0.51-0.239-0.715-0.442 0.128-0.003 0.265-0.001 0.305-0.048-0.226-0.14-0.417-0.296-0.575-0.466 0.179 0.022 0.254 0.003 0.297-0.028-0.171-0.175-0.387-0.323-0.49-0.538 0.133 0.046 0.254 0.063 0.342-0.004-0.058-0.131-0.307-0.208-0.45-0.514 0.14 0.014 0.288 0.030 0.317 0-0.065-0.264-0.176-0.413-0.285-0.566 0.299-0.004 0.752 0.001 0.731-0.024l-0.185-0.189c0.292-0.079 0.591 0.013 0.808 0.080 0.097-0.077-0.002-0.174-0.121-0.273 0.248 0.033 0.472 0.090 0.675 0.169 0.108-0.098-0.070-0.196-0.157-0.293 0.383 0.073 0.546 0.175 0.707 0.277 0.117-0.112 0.007-0.208-0.072-0.305 0.289 0.107 0.438 0.245 0.595 0.382 0.053-0.072 0.135-0.124 0.036-0.297 0.205 0.118 0.36 0.258 0.474 0.414 0.127-0.081 0.076-0.191 0.076-0.293 0.213 0.173 0.349 0.358 0.514 0.538 0.033-0.024 0.063-0.107 0.088-0.237 0.509 0.494 1.228 1.737 0.185 2.23-0.888-0.732-1.948-1.264-3.122-1.663z"></path>
<path fill="rgb(117, 169, 40)" d="M10.398 1.512c-1.51 0.779-2.388 1.408-2.868 1.945 0.246 0.987 1.531 1.032 2.001 1.004-0.096-0.045-0.176-0.098-0.205-0.181 0.118-0.084 0.536-0.009 0.828-0.173-0.112-0.023-0.165-0.046-0.217-0.129 0.276-0.088 0.573-0.164 0.747-0.309-0.094 0.001-0.182 0.021-0.305-0.064 0.247-0.133 0.51-0.239 0.715-0.442-0.128-0.003-0.265-0.001-0.305-0.048 0.226-0.14 0.417-0.296 0.575-0.466-0.179 0.022-0.254 0.003-0.297-0.028 0.171-0.175 0.387-0.323 0.49-0.538-0.133 0.046-0.254 0.063-0.342-0.004 0.058-0.131 0.307-0.208 0.45-0.514-0.14 0.014-0.288 0.030-0.317 0 0.065-0.264 0.176-0.413 0.285-0.566-0.299-0.004-0.752 0.001-0.731-0.024l0.185-0.189c-0.292-0.079-0.591 0.013-0.808 0.080-0.097-0.077 0.002-0.174 0.121-0.273-0.248 0.033-0.472 0.090-0.675 0.169-0.108-0.098 0.070-0.196 0.157-0.293-0.383 0.073-0.546 0.175-0.707 0.277-0.117-0.112-0.007-0.208 0.072-0.305-0.289 0.107-0.438 0.245-0.595 0.382-0.053-0.072-0.135-0.124-0.036-0.297-0.205 0.118-0.36 0.258-0.474 0.414-0.127-0.081-0.076-0.191-0.076-0.293-0.213 0.173-0.349 0.358-0.514 0.538-0.033-0.024-0.063-0.107-0.088-0.237-0.509 0.494-1.228 1.737-0.185 2.23 0.887-0.732 1.947-1.264 3.122-1.663z"></path>
<path fill="rgb(188, 17, 66)" d="M8.221 11.564c0 0.003 0 0.006 0 0.009 0 0.921-0.81 1.668-1.809 1.668s-1.809-0.747-1.809-1.668c0-0.003 0-0.006 0-0.009s-0-0.005-0-0.008c0-0.921 0.81-1.668 1.809-1.668s1.809 0.747 1.809 1.668c0 0.003-0 0.006-0 0.009z"></path>
<path fill="rgb(188, 17, 66)" d="M5.366 6.799c0.749 0.491 0.885 1.604 0.302 2.486s-1.663 1.199-2.412 0.708c-0.749-0.491-0.885-1.604-0.302-2.486s1.663-1.199 2.412-0.708z"></path>
<path fill="rgb(188, 17, 66)" d="M7.388 6.71c-0.749 0.491-0.885 1.604-0.302 2.486s1.663 1.199 2.412 0.708c0.749-0.491 0.885-1.604 0.302-2.486s-1.663-1.199-2.412-0.708z"></path>
<path fill="rgb(188, 17, 66)" d="M1.62 7.602c0.809-0.217 0.273 3.347-0.385 3.055-0.724-0.582-0.957-2.288 0.385-3.055z"></path>
<path fill="rgb(188, 17, 66)" d="M10.971 7.558c-0.809-0.217-0.273 3.348 0.385 3.055 0.724-0.583 0.957-2.288-0.385-3.055z"></path>
<path fill="rgb(188, 17, 66)" d="M8.222 4.903c1.396-0.236 2.558 0.594 2.511 2.108-0.046 0.58-3.026-2.022-2.511-2.108z"></path>
<path fill="rgb(188, 17, 66)" d="M4.364 4.859c-1.396-0.236-2.558 0.594-2.511 2.108 0.046 0.58 3.026-2.022 2.511-2.108z"></path>
<path fill="rgb(188, 17, 66)" d="M6.369 4.506c-0.833-0.022-1.633 0.619-1.635 0.99-0.002 0.451 0.659 0.913 1.641 0.925 1.003 0.007 1.643-0.37 1.646-0.835 0.004-0.528-0.912-1.087-1.651-1.079z"></path>
<path fill="rgb(188, 17, 66)" d="M6.42 13.758c0.727-0.032 1.702 0.234 1.703 0.587 0.012 0.342-0.884 1.116-1.752 1.101-0.898 0.039-1.779-0.736-1.768-1.004-0.013-0.394 1.094-0.701 1.816-0.683z"></path>
<path fill="rgb(188, 17, 66)" d="M3.736 11.669c0.517 0.623 0.753 1.718 0.321 2.041-0.408 0.246-1.4 0.145-2.105-0.868-0.475-0.85-0.414-1.715-0.080-1.969 0.499-0.304 1.271 0.107 1.864 0.795z"></path>
<path fill="rgb(188, 17, 66)" d="M9 11.471c-0.56 0.656-0.871 1.851-0.463 2.236 0.39 0.299 1.438 0.257 2.213-0.817 0.562-0.721 0.374-1.926 0.053-2.246-0.477-0.369-1.162 0.103-1.802 0.826z"></path>
</svg>
