<?xml version="1.0" encoding="utf-8"?>
<!-- Generated by IcoMoon.io -->
<!DOCTYPE svg PUBLIC "-//W3C//DTD SVG 1.1//EN" "http://www.w3.org/Graphics/SVG/1.1/DTD/svg11.dtd">
<svg version="1.1" xmlns="http://www.w3.org/2000/svg" xmlns:xlink="http://www.w3.org/1999/xlink" width="17" height="16" viewBox="0 0 17 16">
<path fill="rgb(255, 255, 255)" d="M1.675 0.086h13.483c0.877 0 1.589 0.711 1.589 1.589v12.65c0 0.877-0.711 1.589-1.589 1.589h-13.483c-0.877 0-1.589-0.711-1.589-1.589v-12.65c0-0.877 0.711-1.589 1.589-1.589z"></path>
<path fill="rgb(0, 0, 0)" d="M13.644 8.201c0 3.6-2.918 6.518-6.518 6.518s-6.518-2.919-6.518-6.518c-0-3.6 2.918-6.518 6.518-6.518s6.518 2.919 6.518 6.518z"></path>
<path fill="rgb(150, 150, 150)" d="M6.167 14.326c-1.583-0.248-3.008-1.099-3.978-2.375l4.937-3.75-0.96 6.125z"></path>
<path fill="rgb(150, 150, 150)" d="M7.585 2.018c1.527 0.113 2.958 0.787 4.017 1.892l-4.476 4.29 0.458-6.183z"></path>
<path fill="rgb(255, 255, 255)" d="M9.461 8.201c0 1.289-1.045 2.335-2.334 2.335s-2.334-1.045-2.334-2.335c-0-1.289 1.045-2.335 2.334-2.335s2.335 1.045 2.334 2.335z"></path>
<path fill="rgb(0, 0, 0)" d="M7.465 8.201c0 0.187-0.152 0.339-0.339 0.339s-0.339-0.152-0.339-0.339c-0-0.187 0.152-0.339 0.339-0.339s0.339 0.152 0.339 0.339z"></path>
<path fill="rgb(150, 150, 150)" d="M14.343 2.623l-3.037 6.818-2.477 1.424 0.582 0.943 0.694-0.465 0.851 1.122 0.343-0.205-0.543-1.352 1.245-0.833 3.285-6.983-0.942-0.47z"></path>
<path fill="rgb(150, 150, 150)" d="M14.438 2.413l-1.369 3.059 0.381 1.502 1.929-4.092-0.941-0.469z"></path>
<path fill="rgb(150, 150, 150)" d="M13.198 5.384l-0.192 0.476 0.257 1.326 0.24-0.539-0.305-1.263z"></path>
<path fill="rgb(150, 150, 150)" d="M13.192 2.201l0.446-0.985c0.126-0.278 0.453-0.401 0.73-0.275l1.588 0.719c0.278 0.126 0.401 0.453 0.275 0.73l-0.446 0.985c-0.126 0.278-0.453 0.401-0.73 0.275l-1.588-0.719c-0.278-0.126-0.401-0.453-0.275-0.73z"></path>
<path fill="rgb(150, 150, 150)" d="M13.673 14.372c0 0.401-0.325 0.727-0.726 0.727s-0.727-0.325-0.727-0.727c0-0.402 0.325-0.727 0.727-0.727s0.727 0.325 0.726 0.727z"></path>
<path fill="rgb(150, 150, 150)" d="M15.768 14.341c0 0.384-0.324 0.695-0.725 0.695s-0.725-0.311-0.725-0.695c0-0.384 0.325-0.696 0.725-0.696s0.725 0.311 0.725 0.696z"></path>
<path fill="rgb(150, 150, 150)" d="M14.92 9.098h0.669v3.094h-0.669v-3.094z"></path>
<path fill="rgb(0, 0, 0)" d="M15.849 9.864c0 0.303-0.256 0.549-0.572 0.549s-0.572-0.246-0.572-0.549c0-0.303 0.256-0.549 0.572-0.549s0.572 0.246 0.572 0.549z"></path>
</svg>
